<?xml version="1.0" encoding="iso-8859-1"?>
<!-- Generator: Adobe Illustrator 19.0.0, SVG Export Plug-In . SVG Version: 6.00 Build 0)  -->
<svg version="1.1" id="Capa_1" xmlns="http://www.w3.org/2000/svg" xmlns:xlink="http://www.w3.org/1999/xlink" x="0px" y="0px"
	 viewBox="0 0 436.9 436.9" style="enable-background:new 0 0 436.9 436.9;" xml:space="preserve">
<circle style="fill:#45B39C;" cx="218.45" cy="218.45" r="218.45"/>
<path style="opacity:0.1;enable-background:new    ;" d="M414.19,315.457L297.021,198.288l-55.091-42.223h-42.974l-12.22-12.22
	h-12.937v26.692l-37.308,27.613v56.397l-4.031-4.031c-0.008-0.008-0.016-0.016-0.024-0.024l-0.053-0.053l-0.004,0.014
	c-0.511-0.485-1.193-0.796-1.963-0.796c-1.57,0-2.833,1.297-2.833,2.867v3.132l-4.99-4.99l-0.003,0.04
	c-0.519-0.626-1.268-1.049-2.141-1.049c-1.604,0-2.867,1.297-2.867,2.867v3.652l-5.623-5.623c-0.029-0.03-0.056-0.058-0.087-0.087
	l-0.028-0.028l-0.002,0.007c-0.514-0.48-1.191-0.789-1.941-0.789c-1.57,0-2.867,1.297-2.867,2.867v8.363h-6.417v5.734l6.417,6.417
	v10.547H90.446v9.489l143.242,143.242C312.969,430.851,380.591,383.121,414.19,315.457z"/>
<rect x="215.65" y="243.06" style="fill:#D15241;" width="29.06" height="42.22"/>
<rect x="216.64" y="244.8" style="fill:#2D93BA;" width="27.06" height="38.786"/>
<polygon style="fill:#27A2DB;" points="216.655,283.577 216.655,244.79 243.721,244.79 "/>
<rect x="218.13" y="259.89" style="fill:#D15241;" width="1.471" height="8.339"/>
<rect x="136.48" y="198.14" style="fill:#E56353;" width="117.42" height="85.44"/>
<rect x="90.45" y="283.58" style="fill:#64798A;" width="256" height="9.492"/>
<rect x="90.45" y="287.81" style="fill:#3A556A;" width="256" height="5.243"/>
<rect x="173.8" y="143.84" style="fill:#FCD462;" width="12.954" height="27.28"/>
<rect x="173.8" y="143.84" style="fill:#1C75A1;" width="12.954" height="6.154"/>
<rect x="147.73" y="209.95" style="fill:#D5D6DB;" width="21.583" height="19.988"/>
<polygon style="fill:#EBF0F3;" points="147.73,229.952 147.73,209.962 169.313,209.962 "/>
<rect x="215.65" y="243.06" style="fill:#64798A;" width="29.06" height="42.22"/>
<rect x="216.64" y="244.8" style="fill:#D5D6DB;" width="27.06" height="38.786"/>
<polygon style="fill:#EBF0F3;" points="216.655,283.577 216.655,244.79 243.721,244.79 "/>
<rect x="218.13" y="263.1" style="fill:#D15241;" width="1.471" height="8.339"/>
<polygon style="fill:#3A556A;" points="253.897,198.295 193.405,156.049 136.481,198.155 "/>
<rect x="147.73" y="237.43" style="fill:#D5D6DB;" width="21.583" height="19.988"/>
<polygon style="fill:#EBF0F3;" points="147.73,257.409 147.73,237.42 169.313,237.42 "/>
<rect x="179.51" y="209.95" style="fill:#D5D6DB;" width="21.583" height="19.988"/>
<polygon style="fill:#EBF0F3;" points="179.503,229.952 179.503,209.962 201.085,209.962 "/>
<rect x="179.51" y="237.43" style="fill:#D5D6DB;" width="21.583" height="19.988"/>
<polygon style="fill:#EBF0F3;" points="179.503,257.409 179.503,237.42 201.085,237.42 "/>
<polyline style="fill:#64798A;" points="253.897,198.295 297.004,198.295 241.929,156.049 193.405,156.049 "/>
<rect x="253.88" y="198.28" style="fill:#D15241;" width="43.11" height="85.28"/>
<polygon style="fill:#D5D6DB;" points="274.784,227.269 258.355,227.129 258.355,212.785 274.784,213.607 "/>
<polygon style="fill:#EBF0F3;" points="258.355,227.129 258.355,212.785 274.784,213.607 "/>
<polygon style="fill:#D5D6DB;" points="293.682,227.43 279.125,227.306 279.125,213.824 293.682,214.551 "/>
<polygon style="fill:#EBF0F3;" points="279.125,227.306 279.125,213.824 293.682,214.551 "/>
<polygon style="fill:#D5D6DB;" points="274.784,246.558 258.355,247.38 258.355,233.036 274.784,232.896 "/>
<polygon style="fill:#EBF0F3;" points="258.355,247.38 258.355,233.036 274.784,232.896 "/>
<polygon style="fill:#D5D6DB;" points="293.682,245.614 279.125,246.341 279.125,232.859 293.682,232.735 "/>
<polygon style="fill:#EBF0F3;" points="279.125,246.341 279.125,232.859 293.682,232.735 "/>
<circle style="fill:#E1E6E9;" cx="193.4" cy="180.55" r="8.404"/>
<g>
	<rect x="296.99" y="260.92" style="fill:#64798A;" width="35.802" height="5.714"/>
	<path style="fill:#64798A;" d="M326.378,283.577h-5.714v-31.052c0-1.578,1.279-2.857,2.857-2.857l0,0
		c1.578,0,2.857,1.279,2.857,2.857V283.577z"/>
	<path style="fill:#64798A;" d="M315.843,283.577h-5.714v-31.052c0-1.578,1.279-2.857,2.857-2.857l0,0
		c1.578,0,2.857,1.279,2.857,2.857V283.577z"/>
	<path style="fill:#64798A;" d="M305.843,283.577h-5.714v-31.052c0-1.578,1.279-2.857,2.857-2.857l0,0
		c1.578,0,2.857,1.279,2.857,2.857V283.577z"/>
	<rect x="100.61" y="260.92" style="fill:#64798A;" width="35.799" height="5.714"/>
	<path style="fill:#64798A;" d="M112.754,283.577h-5.714v-31.052c0-1.578,1.279-2.857,2.857-2.857l0,0
		c1.578,0,2.857,1.279,2.857,2.857C112.754,252.525,112.754,283.577,112.754,283.577z"/>
	<path style="fill:#64798A;" d="M123.289,283.577h-5.714v-31.052c0-1.578,1.279-2.857,2.857-2.857l0,0
		c1.578,0,2.857,1.279,2.857,2.857C123.289,252.525,123.289,283.577,123.289,283.577z"/>
	<path style="fill:#64798A;" d="M133.289,283.577h-5.714v-31.052c0-1.578,1.279-2.857,2.857-2.857l0,0
		c1.578,0,2.857,1.279,2.857,2.857V283.577z"/>
</g>
<g>
</g>
<g>
</g>
<g>
</g>
<g>
</g>
<g>
</g>
<g>
</g>
<g>
</g>
<g>
</g>
<g>
</g>
<g>
</g>
<g>
</g>
<g>
</g>
<g>
</g>
<g>
</g>
<g>
</g>
</svg>
